PathFileType	4	(X/Y/Z)	Patient4_TMGait_0pt4_02_left_37.trc.trc
DataRate	CameraRate	NumFrames	NumMarkers	Units	OrigDataRate	OrigDataStartFrame	OrigNumFrames
75.268817204301	75.268817204301	4	33	mm	75.268817204301	53	       141
Frame#	Time	Sacral			L.Shoulder			Chest			R.Shoulder			Neck			R.ASIS			L.ASIS			R.Thigh.Superior			R.Thigh.Lateral			R.Thigh.Inferior			R.Patella			L.Thigh.Superior			L.Thigh.Lateral			L.Thigh.Inferior			L.Patella			L.Shank.Superior			L.Shank.Lateral			L.Shank.Inferior			R.Shank.Superior			R.Shank.Lateral			R.Shank.Inferior			R.Heel			R.Midfoot.Superior			R.Midfoot.Lateral			R.Toe			L.Heel			L.Midfoot.Lateral			L.Midfoot.Superior			L.Toe			L.Elbow			L.Wrist			R.Elbow			R.Wrist			
		X1	Y1	Z1	X2	Y2	Z2	X3	Y3	Z3	X4	Y4	Z4	X5	Y5	Z5	X6	Y6	Z6	X7	Y7	Z7	X8	Y8	Z8	X9	Y9	Z9	X10	Y10	Z10	X11	Y11	Z11	X12	Y12	Z12	X13	Y13	Z13	X14	Y14	Z14	X15	Y15	Z15	X16	Y16	Z16	X17	Y17	Z17	X18	Y18	Z18	X19	Y19	Z19	X20	Y20	Z20	X21	Y21	Z21	X22	Y22	Z22	X23	Y23	Z23	X24	Y24	Z24	X25	Y25	Z25	X26	Y26	Z26	X27	Y27	Z27	X28	Y28	Z28	X29	Y29	Z29	X30	Y30	Z30	X31	Y31	Z31	X32	Y32	Z32	X33	Y33	Z33	

53	50.140857142857	828.443424001703	1003.894534220733	417.026178220117	1009.055167594633	1435.323696216995	225.203794657374	1111.674703135193	1365.909676082670	386.605901798815	1027.502603087160	1439.595628727629	560.960839244962	1006.562066198148	1497.996070386878	379.494536920012	1061.668367756392	948.491086780958	529.848993156518	1040.582698164576	963.269340061184	255.951758785283	1146.300045842462	777.205904358464	504.012141830448	1107.165803688991	657.907604837237	584.243478256483	1198.338943855151	617.176088250029	507.591980375652	1216.731320895956	505.699961052046	533.218655580042	1096.258472907577	753.362531855771	280.654579980501	1008.295323993803	635.272813905867	226.324681346012	1098.103824417586	560.061447232475	284.956503748716	1100.480512193802	489.917496656342	294.818142167504	1070.488417899577	416.591515065245	289.416729264727	975.701699941658	304.677787991650	242.385207659358	1025.269910373324	192.338490280081	312.727954005727	1140.491131719843	431.181111538190	544.009948225952	1019.350474598208	396.126712929852	607.779632073672	1003.058867918515	284.856105519619	564.304110901555	804.011765870957	234.985812742507	541.025788775347	965.079436842182	158.376116403022	582.048614817984	855.673293108218	168.043840335721	613.711114648880	1016.799465324306	37.140125983314	606.646506072664	894.882309448393	39.461391027239	361.961135188869	964.970887832015	35.403848845445	277.860676205354	1050.130403354666	95.854290813490	301.553679542943	1177.211495885284	41.469734027179	267.052995627507	1040.220790641754	1096.822190423164	78.753998048530	1240.269548936319	926.090211063634	88.521453589209	964.261503278562	1093.969306201624	672.563430677089	1023.662638070751	838.388848010254	681.484511802014	
54	50.154142857143	827.548317255680	1004.750554374900	415.342960393281	1010.443529921064	1436.120779673472	224.408003908447	1111.395823223246	1366.414602094383	386.756784491042	1025.715779977163	1440.469735428666	560.182457084464	1007.244509383106	1498.802752309324	378.578477228949	1060.001019472339	949.630626877065	529.459120933112	1040.439188866864	963.777681644593	255.470035698875	1145.997929918251	780.121067579441	503.681746409677	1108.465378740713	660.624021320018	584.337891727982	1199.928293973915	620.754702282853	507.644479774982	1220.188970480872	510.013386146924	533.636225757326	1094.237027020871	752.882300468520	280.199599679837	1005.124008448901	635.515649815064	225.858466605067	1094.217893835747	559.548268434658	284.489214883672	1095.958091107130	489.556135222687	294.387897645733	1065.794133755632	416.535623322353	288.909746547651	970.532930257828	304.856048937348	241.903968553615	1020.075472201429	192.418797117956	312.335088220719	1145.719979139306	433.850849928181	544.564701790586	1025.563360547241	395.297791964852	608.165679608382	1012.689674217248	283.456291361670	564.956649389494	815.155585170264	226.719648386985	541.696903125529	978.894407791082	156.327286613850	583.014684178968	869.195068879252	161.866802300507	614.574567451312	1034.847585444500	37.037228006937	607.504428219469	889.478337218063	39.566756766234	361.833696909590	959.614193120605	35.400756224145	277.751703759353	1044.801783587977	95.848096767867	301.352285070686	1171.858034125082	41.429516437593	266.979726671176	1045.935381148552	1099.150648460106	76.550211091568	1251.665706720899	935.688200402423	87.651812139494	955.035974341220	1096.754926206797	672.017471410777	1005.299493656676	839.326877909590	683.532382574730	
55	50.167428571429	826.640179968342	1005.684092696481	413.777181887318	1011.893395975442	1436.845683856274	223.750387170648	1111.198923591331	1366.878212465290	387.011678548838	1024.087064502081	1441.357462281708	559.471823119408	1007.956618929599	1499.567052712059	377.791926200158	1058.273553865088	950.679472638158	529.261700739354	1040.379623240527	964.278090609230	255.162858871226	1145.251377593530	782.604571349050	503.540262894653	1109.063516047983	662.951729446225	584.566963328691	1200.607966853791	623.721363047683	507.789571982759	1222.580880538967	513.977067422792	534.176774994117	1092.110627723057	752.384405776882	280.114329064044	1001.911378352262	635.779067151233	225.532829711288	1090.166724828752	559.034072721443	284.277503643884	1091.219040547583	489.206034150832	294.187198630555	1060.941841153398	416.507690478268	288.567056439571	965.304019586941	305.026980042348	241.531182469779	1014.841635417658	192.512401287201	312.046050564903	1150.291361631860	436.033093255274	545.290805309369	1031.572745097778	393.270876719983	608.845811299614	1022.750490554106	280.933766496491	565.875326947285	827.260943592496	216.240001879197	542.808350144851	993.908737081478	153.159872878008	584.348698621292	884.058572415475	153.990338579596	615.914544072129	1054.748096243212	36.469472509203	608.808104303599	884.069453058864	39.649935922291	361.721961845810	954.250385079153	35.392991953485	277.656954696456	1039.464176895039	95.846395742316	301.186901715825	1166.496373377311	41.408526538182	266.921814172209	1051.131180864170	1101.309999850136	74.719039919754	1262.121608590938	945.116349451606	87.139966715971	946.084417913014	1099.848094655286	671.800828485791	988.220214747330	841.165200040976	685.494746894488	
56	50.180714285714	825.716393888876	1006.657394443619	412.330790623239	1013.398727109831	1437.448007131299	223.223552845618	1111.087734675651	1367.258082562034	387.363765339346	1022.630252087824	1442.213860038950	558.837887671040	1008.695272591018	1500.246701749886	377.126317593018	1056.496828998729	951.594029308593	529.269593346853	1040.392061971885	964.731766723016	255.041263217078	1144.077321116673	784.584958270236	503.599442676672	1108.919782038268	664.815199370590	584.924266872729	1200.351910621755	625.982794407920	508.040772598865	1223.849365563055	517.505332475109	534.814128092055	1089.895381525698	751.852231292433	280.366363306627	998.676791235497	636.041464068053	225.331846410520	1085.977918667267	558.507402333256	284.297536936945	1086.295354385649	488.854681361764	294.198697094445	1055.964290934151	416.487366816460	288.379236509801	960.049916183501	305.172532857483	241.257438035925	1009.582754320171	192.603524979548	311.860510360426	1154.174717563646	437.707291347929	546.162003433253	1037.448477283615	390.116700796168	609.838709410559	1033.257230033301	277.435695573802	567.051940083744	840.492602322971	203.866008914540	544.391923680489	1010.092276795598	149.095466104209	586.008595403733	900.334753250458	144.739528497776	617.727172842545	1076.320172764515	35.626955653483	610.512172575682	878.659336310225	39.703886359926	361.627150788285	948.879774891025	35.377785773780	277.575022273147	1034.116335900901	95.847149399004	301.058401794020	1161.128303293995	41.406977850898	266.877685454045	1055.821180328740	1103.220644888441	73.241880350202	1271.649590942930	954.238092674201	86.960249995744	937.454507048674	1103.167671755905	671.878700387663	972.416777270260	843.677758607650	687.396028148737	
